REM DIRINDEX 1\2\6,1\2\7,1\2\8,1\2\9,1\3\10,1\3\11,1\4\12,1\4\13,1\4\14,1\5\15,1\5\16,1\5\17
REM DIRNAME folder01,folder02,folder03,folder04,folder05,folder06,folder07,folder08,folder09,folder10,folder11,folder12,folder13,folder14,folder15,folder16,folder17
TITLE ""
FILE "1900_2_sec18_1719_1737.mp3" MP3
  TRACK 01 AUDIO
    TITLE "0:"
    INDEX 01 00:00:00
  TRACK 02 AUDIO
    TITLE "13:cjc020_5595"
    INDEX 01 00:00:17
  TRACK 03 AUDIO
    TITLE "0:"
    INDEX 01 00:01:36
  TRACK 04 AUDIO
    TITLE "14:cjc020_5596"
    INDEX 01 00:01:38
  TRACK 05 AUDIO
    TITLE "0:"
    INDEX 01 00:05:61
  TRACK 06 AUDIO
    TITLE "13:cjc020_5597"
    INDEX 01 00:06:39
  TRACK 07 AUDIO
    TITLE "0:"
    INDEX 01 00:07:45
  TRACK 08 AUDIO
    TITLE "14:cjc020_5598"
    INDEX 01 00:07:47
  TRACK 09 AUDIO
    TITLE "0:"
    INDEX 01 00:11:66
  TRACK 10 AUDIO
    TITLE "13:cjc020_5599"
    INDEX 01 00:12:42
  TRACK 11 AUDIO
    TITLE "0:"
    INDEX 01 00:13:45
  TRACK 12 AUDIO
    TITLE "14:cjc020_5600"
    INDEX 01 00:13:49
  TRACK 13 AUDIO
    TITLE "0:"
    INDEX 01 00:15:60
  TRACK 14 AUDIO
    TITLE "13:cjc020_5601"
    INDEX 01 00:16:38
  TRACK 15 AUDIO
    TITLE "0:"
    INDEX 01 00:17:51
  TRACK 16 AUDIO
    TITLE "14:cjc020_5602"
    INDEX 01 00:17:53
  TRACK 17 AUDIO
    TITLE "0:"
    INDEX 01 00:21:29
  TRACK 18 AUDIO
    TITLE "13:cjc020_5603"
    INDEX 01 00:22:07
  TRACK 19 AUDIO
    TITLE "0:"
    INDEX 01 00:23:26
  TRACK 20 AUDIO
    TITLE "14:cjc020_5604"
    INDEX 01 00:23:28
  TRACK 21 AUDIO
    TITLE "0:"
    INDEX 01 00:25:70
  TRACK 22 AUDIO
    TITLE "13:cjc020_5605"
    INDEX 01 00:26:48
  TRACK 23 AUDIO
    TITLE "0:"
    INDEX 01 00:27:57
  TRACK 24 AUDIO
    TITLE "14:cjc020_5606"
    INDEX 01 00:27:63
  TRACK 25 AUDIO
    TITLE "0:"
    INDEX 01 00:30:46
  TRACK 26 AUDIO
    TITLE "13:cjc020_5607"
    INDEX 01 00:31:24
  TRACK 27 AUDIO
    TITLE "0:"
    INDEX 01 00:32:41
  TRACK 28 AUDIO
    TITLE "14:cjc020_5608"
    INDEX 01 00:32:43
  TRACK 29 AUDIO
    TITLE "0:"
    INDEX 01 00:34:67
  TRACK 30 AUDIO
    TITLE "13:cjc020_5609"
    INDEX 01 00:35:45
  TRACK 31 AUDIO
    TITLE "0:"
    INDEX 01 00:36:50
  TRACK 32 AUDIO
    TITLE "14:cjc020_5610"
    INDEX 01 00:36:52
  TRACK 33 AUDIO
    TITLE "0:"
    INDEX 01 00:40:09
  TRACK 34 AUDIO
    TITLE "13:cjc020_5611"
    INDEX 01 00:40:64
  TRACK 35 AUDIO
    TITLE "0:"
    INDEX 01 00:42:18
  TRACK 36 AUDIO
    TITLE "14:cjc020_5612"
    INDEX 01 00:42:23
  TRACK 37 AUDIO
    TITLE "0:"
    INDEX 01 00:45:02
  TRACK 38 AUDIO
    TITLE "13:cjc020_5613"
    INDEX 01 00:45:57
  TRACK 39 AUDIO
    TITLE "0:"
    INDEX 01 00:46:68
  TRACK 40 AUDIO
    TITLE "14:cjc020_5614"
    INDEX 01 00:46:70
  TRACK 41 AUDIO
    TITLE "0:"
    INDEX 01 00:47:66
  TRACK 42 AUDIO
    TITLE "13:cjc020_5615"
    INDEX 01 00:48:44
  TRACK 43 AUDIO
    TITLE "0:"
    INDEX 01 00:49:61
  TRACK 44 AUDIO
    TITLE "14:cjc020_5616"
    INDEX 01 00:49:63
  TRACK 45 AUDIO
    TITLE "0:"
    INDEX 01 00:52:49
  TRACK 46 AUDIO
    TITLE "13:cjc020_5617"
    INDEX 01 00:53:29
  TRACK 47 AUDIO
    TITLE "0:"
    INDEX 01 00:54:60
  TRACK 48 AUDIO
    TITLE "14:cjc020_5618"
    INDEX 01 00:54:64
  TRACK 49 AUDIO
    TITLE "0:"
    INDEX 01 00:59:16
  TRACK 50 AUDIO
    TITLE "13:cjc020_5619"
    INDEX 01 00:59:69
  TRACK 51 AUDIO
    TITLE "0:"
    INDEX 01 01:01:17
  TRACK 52 AUDIO
    TITLE "14:cjc020_5620"
    INDEX 01 01:01:19
  TRACK 53 AUDIO
    TITLE "0:"
    INDEX 01 01:02:57
  TRACK 54 AUDIO
    TITLE "13:cjc020_5621"
    INDEX 01 01:03:39
  TRACK 55 AUDIO
    TITLE "0:"
    INDEX 01 01:04:54
  TRACK 56 AUDIO
    TITLE "14:cjc020_5622"
    INDEX 01 01:04:56
  TRACK 57 AUDIO
    TITLE "0:"
    INDEX 01 01:07:47
  TRACK 58 AUDIO
    TITLE "13:cjc020_5623"
    INDEX 01 01:08:23
  TRACK 59 AUDIO
    TITLE "0:"
    INDEX 01 01:09:34
  TRACK 60 AUDIO
    TITLE "14:cjc020_5624"
    INDEX 01 01:09:36
  TRACK 61 AUDIO
    TITLE "0:"
    INDEX 01 01:13:55
  TRACK 62 AUDIO
    TITLE "13:cjc020_5625"
    INDEX 01 01:14:37
  TRACK 63 AUDIO
    TITLE "0:"
    INDEX 01 01:15:44
  TRACK 64 AUDIO
    TITLE "14:cjc020_5626"
    INDEX 01 01:15:48
  TRACK 65 AUDIO
    TITLE "0:"
    INDEX 01 01:18:07
  TRACK 66 AUDIO
    TITLE "13:cjc020_5627"
    INDEX 01 01:18:60
  TRACK 67 AUDIO
    TITLE "0:"
    INDEX 01 01:19:64
  TRACK 68 AUDIO
    TITLE "14:cjc020_5628"
    INDEX 01 01:19:66
  TRACK 69 AUDIO
    TITLE "0:"
    INDEX 01 01:22:64
  TRACK 70 AUDIO
    TITLE "12:cjc020_5629"
    INDEX 01 01:24:36
  TRACK 71 AUDIO
    TITLE "0:"
    INDEX 01 01:25:60
  TRACK 72 AUDIO
    TITLE "13:cjc020_5630"
    INDEX 01 01:26:58
  TRACK 73 AUDIO
    TITLE "0:"
    INDEX 01 01:28:00
  TRACK 74 AUDIO
    TITLE "14:cjc020_5631"
    INDEX 01 01:28:02
  TRACK 75 AUDIO
    TITLE "0:"
    INDEX 01 01:32:13
  TRACK 76 AUDIO
    TITLE "13:cjc020_5632"
    INDEX 01 01:32:68
  TRACK 77 AUDIO
    TITLE "0:"
    INDEX 01 01:34:34
  TRACK 78 AUDIO
    TITLE "14:cjc020_5633"
    INDEX 01 01:34:36
  TRACK 79 AUDIO
    TITLE "0:"
    INDEX 01 01:38:43
